<svg width="1321" height="267" viewBox="0 0 1321 267" fill="none" xmlns="http://www.w3.org/2000/svg">
<path d="M155.987 134.026C168.705 132.779 186.912 133.581 199.854 134.689C211.256 135.913 222.898 146.612 223.124 158.413C223.838 195.647 228.495 233.504 193.294 256.043C185.604 260.925 176.992 264.173 167.994 265.587C156.622 267.33 115.762 266.69 102.453 266.575C86.3567 266.437 41.6642 267.918 28.2753 264.934C9.18931 258.269 -8.11787 236.646 4.8651 215.931C10.5101 206.923 24.7319 194.677 32.7889 186.755L82.1717 138.358C95.9395 144.552 105.982 156.88 108.962 171.958C109.87 176.555 108.365 178.601 110.799 181.995C116.004 178.992 110.144 140.015 155.987 134.026ZM800.239 96.1208C812.269 94.8988 837.279 95.6454 850.189 95.6785L850.229 110.148C840.469 110.25 808.581 108.665 801.29 112.085C794.99 118.951 795 155.517 800.22 162.175C806.21 165.862 821.689 164.618 829.569 164.552L850.21 164.637L850.17 179.223C803.37 179.436 777.589 189.848 782.059 132.147C783.359 115.328 779.959 102.513 800.239 96.1208ZM906.55 96.1365C969.18 90.1345 969.18 100.997 966.01 159.19C965.469 169.213 958.08 175.58 949.72 178.757C937.2 180.172 913.68 180.512 901.48 176.91C892.77 173.285 889.16 158.279 889.75 150.431C891.27 130.236 882.71 105.074 906.55 96.1365ZM1009.71 95.824C1027.08 95.716 1047.17 94.5635 1063.93 95.9695C1086.61 97.8728 1083.95 127.615 1083.73 143.247C1083.57 154.618 1084.77 162.571 1077.43 171.865C1068.28 180.28 1058.66 179.379 1047 179.364C1034.56 179.348 1022.1 179.259 1009.66 179.201L1009.71 95.824ZM1258.59 95.5701C1265.68 105.485 1272.91 115.298 1280.28 125.007C1287.3 116.336 1295.33 104.848 1302.1 95.7185L1319.96 95.656C1310.1 109.463 1299.37 123.448 1289.2 137.085C1299.74 150.943 1310.07 164.967 1320.17 179.152L1302.56 179.222C1295.18 168.994 1288.03 159.062 1280.24 149.143C1272.74 159.142 1265.31 169.187 1257.93 179.276L1240.65 179.136C1249.06 166.379 1262.19 149.377 1271.37 136.906L1240.69 95.7029L1258.59 95.5701ZM403.287 179.256L388.564 179.156L388.544 150.379L388.533 125.044C380.752 136.337 370.881 154.28 363.721 166.422L352.545 166.266C344.417 153.392 335.753 137.78 327.818 124.432C327.309 141.733 327.711 161.701 327.695 179.194L313.024 179.156L313.062 95.7742L327.864 95.6384L358.12 148.163C368.418 130.977 378.575 112.995 388.667 95.6316L403.285 95.6218L403.287 179.256ZM710.045 95.5662C722.54 122.757 736.59 151.794 748.23 179.15L732.29 179.234L706.087 121.651C704.912 119.009 703.387 116.061 702.104 113.427L672.012 179.249L656.077 179.171L694.002 95.5779L710.045 95.5662ZM559.206 95.7732C579.98 94.6712 610.321 95.5952 631.804 95.5662L631.775 110.121L602.637 110.308C602.38 123.543 602.572 137.422 602.551 150.71L602.573 179.219L587.814 179.17L587.764 110.263L559.146 110.193L559.206 95.7732ZM1198.23 110.139L1143.7 110.182L1143.65 129.768L1188.9 129.822L1188.89 144.473L1154.61 144.497L1143.7 144.512L1143.64 164.575C1161.86 164.495 1180.09 164.515 1198.31 164.635L1198.26 179.209L1129.12 179.213L1129.19 95.737L1198.27 95.614L1198.23 110.139ZM450.236 95.7771C472.454 95.1731 496.845 95.6346 519.296 95.5466L519.302 110.07L464.7 110.223L464.659 129.864C479.835 129.694 495.275 129.84 510.474 129.837L510.48 144.44L476.706 144.47L464.7 144.491L464.668 164.523L519.279 164.67L519.293 179.198L450.116 179.167C449.612 152.62 449.738 122.28 450.236 95.7771ZM1061.82 111.167C1052.25 108.825 1035.31 110.384 1024.53 110.126C1024.36 128.256 1024.33 146.388 1024.42 164.518C1035.23 164.584 1059.44 166.727 1066.74 161.153C1070.08 153.841 1073.14 113.94 1061.82 111.167ZM950.61 116.262C948.56 107.082 921.21 110.02 913.67 110.157C901.4 113.192 904.75 127.343 904.21 137.472C903.83 144.44 903.7 157.807 908.63 162.938C914.9 165.894 935.65 164.71 943.79 164.604C951.67 161.684 951.84 155.658 951.99 147.982C952.18 138.294 952.68 125.491 950.61 116.262ZM121.262 0.247792C137.358 0.385771 182.05 -1.09556 195.439 1.88842C214.525 8.55347 231.832 30.1764 218.849 50.8913C213.204 59.8993 198.983 72.1461 190.926 80.0681L141.543 128.465C127.775 122.271 117.733 109.943 114.753 94.865C113.845 90.2681 115.35 88.2218 112.916 84.8279C107.71 87.8308 113.571 126.808 67.7274 132.797C55.0094 134.044 36.8022 133.242 23.8602 132.134C12.4582 130.91 0.816688 120.211 0.590688 108.41C-0.123323 71.176 -4.7802 33.319 30.4217 10.78C38.1116 5.89815 46.7227 2.65005 55.7206 1.23607C67.093 -0.50687 107.953 0.132793 121.262 0.247792Z" fill="#F0F0F0"/>
</svg>
